<svg xmlns="http://www.w3.org/2000/svg" xmlns:xlink="http://www.w3.org/1999/xlink" width="138" height="105.003" viewBox="0 0 138 105.003"><defs><style>.a,.b,.c,.e,.f,.g,.i{fill:none;}.a{stroke:#bac7ff;}.a,.b,.f,.g{stroke-linecap:round;}.a,.b{stroke-width:3px;}.b{stroke:#ffd29d;}.c{stroke:#d6dce2;}.c,.e{stroke-width:2px;}.d{fill:#fff;}.e{stroke:#ff4545;opacity:0.2;}.f{stroke:#3ba5ff;}.f,.g{stroke-width:6px;}.g{stroke:#37c399;}.h{stroke:none;}.j{filter:url(#a);}</style><filter id="a" x="27" y="18.003" width="85" height="87" filterUnits="userSpaceOnUse"><feOffset dy="3" input="SourceAlpha"/><feGaussianBlur stdDeviation="3" result="b"/><feFlood flood-color="#d6e9f5"/><feComposite operator="in" in2="b"/><feComposite in="SourceGraphic"/></filter></defs><g transform="translate(-318 -104.997)"><g transform="translate(435.668 188.1)"><path class="a" d="M21210.631-1061.971v8.127" transform="translate(-21206.566 1061.971)"/><path class="a" d="M0,0V8.128" transform="translate(8.128 4.064) rotate(90)"/></g><g transform="translate(354.02 106.497)"><path class="b" d="M21210.631-1061.971v8.127" transform="translate(-21206.566 1061.971)"/><path class="b" d="M0,0V8.128" transform="translate(8.128 4.064) rotate(90)"/></g><g class="c" transform="translate(318 149)"><circle class="h" cx="5.5" cy="5.5" r="5.5"/><circle class="i" cx="5.5" cy="5.5" r="4.5"/></g><g class="j" transform="matrix(1, 0, 0, 1, 318, 105)"><rect class="d" width="67" height="69" rx="33.5" transform="translate(36 24)"/></g><g class="e" transform="translate(446 149)"><circle class="h" cx="5" cy="5" r="5"/><circle class="i" cx="5" cy="5" r="4"/></g><path class="f" d="M373.818,163.936l8.945,9.185"/><path class="g" d="M373.818,163.936l17.1,17.024" transform="translate(219.763 547.819) rotate(-90)"/></g></svg>